<svg width="94" height="94" viewBox="0 0 94 94" fill="none"
    xmlns="http://www.w3.org/2000/svg">
<defs>
    <linearGradient id="left-to-right-1">
      <stop offset="0" stop-color="#4DAF4C">
        <animate id="first" dur="1s" attributeName="offset" fill="freeze" from="0" to="1" />
      </stop>
      <stop offset="0" stop-color="#fff">
        <animate dur="1s" attributeName="offset" fill="freeze" from="0" to="1" />
      </stop>
      
    </linearGradient>
    <linearGradient id="left-to-right-2">
      <stop offset="0" stop-color="#4DAF4C">
        <animate id="second" dur="1s" begin="first.end" attributeName="offset" fill="freeze" from="0" to="1" />
      </stop>
      <stop offset="0" stop-color="#fff">
        <animate dur="1s" begin="first.end" attributeName="offset" fill="freeze" from="0" to="1" />
      </stop>
    </linearGradient>
    <linearGradient id="left-to-right-3">
      <stop offset="0" stop-color="#4DAF4C">
        <animate dur="1s" id="third" begin="second.end-0.3" attributeName="offset" fill="freeze" from="0" to="1" />
      </stop>
      <stop offset="0" stop-color="#fff">
        <animate dur="1s" begin="second.end-0.3" attributeName="offset" fill="freeze" from="0" to="1" />
      </stop>
    </linearGradient>
    <linearGradient id="left-to-right-4">
      <stop offset="0" stop-color="#4DAF4C">
        <animate dur="2s" begin="third.end" attributeName="offset" fill="freeze" from="0" to="1" />
      </stop>
      <stop offset="0" stop-color="#fff">
        <animate dur="2s" begin="third.end" start="left-to-right-1.end" attributeName="offset" fill="freeze" from="0" to="1" />
      </stop>
    </linearGradient>
  </defs>
    <path id="eye" d="M62.5889 31.7915C62.6477 32.6277 62.5299 33.4668 62.2431 34.2545C61.9563 35.0421 61.5069 35.7605 60.9241 36.363C60.3448 36.9661 59.6538 37.4507 58.8894 37.7899C58.117 38.1207 57.2854 38.2912 56.4451 38.2912C55.6048 38.2912 54.7733 38.1207 54.0008 37.7899C53.2365 37.4507 52.5454 36.9661 51.9661 36.363C51.3834 35.7605 50.9339 35.0421 50.6471 34.2545C50.3603 33.4668 50.2425 32.6277 50.3014 31.7915C50.2427 30.9487 50.3597 30.1029 50.6449 29.3076C50.9411 28.5225 51.3902 27.8039 51.9661 27.1936C52.5417 26.5834 53.2359 26.0972 54.0061 25.7649C54.7763 25.4326 55.6063 25.2612 56.4451 25.2612C57.284 25.2612 58.1139 25.4326 58.8842 25.7649C59.6544 26.0972 60.3486 26.5834 60.9241 27.1936C61.5 27.8039 61.9491 28.5225 62.2453 29.3076C62.5305 30.1029 62.6475 30.9487 62.5889 31.7915Z" fill="url(#left-to-right-3)"/>
    <path id="nose" d="M77.4395 37.1029V12.0787C77.3794 10.753 76.8229 9.49838 75.8804 8.56417C75.4073 8.10735 74.8486 7.74846 74.2364 7.50812C73.6242 7.26778 72.9706 7.15072 72.3131 7.16366H66.8696C66.3839 7.18516 65.899 7.10718 65.4446 6.9345C64.9902 6.76183 64.5759 6.49811 64.2271 6.15952C63.8684 5.81912 63.5827 5.40932 63.3874 4.95505C63.1921 4.50078 63.0912 4.01153 63.0908 3.51705C63.0957 3.04428 63.1945 2.5772 63.3815 2.14296C63.5748 1.72029 63.8537 1.34236 64.2007 1.03312C64.5466 0.70639 64.9623 0.462441 65.4162 0.319657C65.8567 0.164518 66.3244 0.101558 66.7903 0.134684H72.7094C74.3426 0.0998763 75.9663 0.39035 77.4861 0.989187C79.0058 1.58802 80.3913 2.48326 81.5617 3.62275C82.6961 4.76631 83.594 6.12218 84.2042 7.61288C84.8674 9.10152 85.2096 10.7132 85.2083 12.3429V37.9485C85.1595 38.5816 85.2312 39.2182 85.4197 39.8246C85.6257 40.4281 85.949 40.9849 86.371 41.463C86.7989 41.9358 87.321 42.3138 87.9036 42.5728C88.4749 42.8374 89.0974 42.9727 89.727 42.9692C90.2122 42.9508 90.6963 43.0302 91.1502 43.2027C91.6042 43.3752 92.0188 43.6373 92.3694 43.9733C93.0317 44.6345 93.4189 45.522 93.4528 46.4572C93.4457 47.4448 93.0576 48.3914 92.3694 49.0997C91.6642 49.7926 90.7156 50.1816 89.727 50.1831C89.0996 50.173 88.4775 50.2992 87.9036 50.5531C87.3361 50.8037 86.8256 51.1673 86.4031 51.6216C85.9806 52.0759 85.655 52.6114 85.4461 53.1955C85.2636 53.7944 85.1832 54.4197 85.2083 55.0453V80.8622C85.207 82.5002 84.8651 84.12 84.2042 85.6187C82.8883 88.6434 80.4414 91.0334 77.3866 92.2777C75.8657 92.882 74.24 93.1784 72.6037 93.1497H66.8696C66.3951 93.1814 65.919 93.1185 65.469 92.9648C65.0314 92.7917 64.6286 92.541 64.2799 92.2249C63.9376 91.891 63.6599 91.4969 63.4608 91.0622C63.2738 90.6279 63.175 90.1609 63.1701 89.6881C63.1704 89.1936 63.2713 88.7044 63.4667 88.2501C63.662 87.7958 63.9477 87.386 64.3064 87.0456C64.6565 86.7105 65.0716 86.4508 65.5262 86.2826C65.9807 86.1144 66.4649 86.0414 66.9488 86.0679H72.3923C73.7087 86.0897 74.9815 85.5963 75.9392 84.6929C76.897 83.7895 77.4638 82.5476 77.5187 81.2322V56.1815C77.4503 54.3613 77.8124 52.5505 78.5757 50.8966C79.3141 49.2379 80.4266 47.7727 81.826 46.6158C80.418 45.4651 79.2888 44.0106 78.5229 42.3614C77.7592 40.7162 77.3883 38.916 77.4395 37.1029Z" fill="url(#left-to-right-4)"/>
    <path id="head" d="M0.569824 12.475C0.590561 10.8449 0.941125 9.23595 1.60039 7.745C2.21057 6.25429 3.10849 4.89842 4.24286 3.75486C5.42269 2.60571 6.82105 1.70491 8.35519 1.10578C9.88933 0.506649 11.5281 0.22136 13.1744 0.266798H38.78C39.2545 0.23519 39.7305 0.298062 40.1805 0.451771C40.6189 0.611344 41.0225 0.853546 41.3696 1.16524C41.715 1.48035 41.9859 1.86852 42.1623 2.3015C42.3606 2.7238 42.4686 3.18279 42.4794 3.64916C42.4732 4.14271 42.3695 4.63016 42.1746 5.0836C41.9796 5.53704 41.6971 5.94756 41.3432 6.29164C40.9896 6.62172 40.5739 6.87816 40.1202 7.04601C39.6665 7.21387 39.184 7.28979 38.7007 7.26935H13.5708C12.912 7.26262 12.2578 7.37913 11.6418 7.61287C11.0218 7.85042 10.4557 8.20983 9.97703 8.66986C9.51363 9.13645 9.13773 9.6824 8.86719 10.2818C8.62085 10.8487 8.49488 11.4605 8.49724 12.0787V81.4171C8.54547 82.7302 9.10654 83.9721 10.06 84.8762C11.0135 85.7802 12.2834 86.2745 13.5972 86.2529H38.8064C39.2906 86.2231 39.7758 86.2947 40.2308 86.463C40.6858 86.6314 41.1006 86.8928 41.4489 87.2306C41.9853 87.7035 42.3566 88.3354 42.5087 89.0341C42.6608 89.7329 42.5858 90.4619 42.2945 91.115C42.1115 91.5444 41.8415 91.9313 41.5017 92.2513C41.1573 92.5861 40.7418 92.839 40.2862 92.9912C39.8509 93.1678 39.3804 93.2402 38.9121 93.2026H13.148C9.85157 93.2378 6.67581 91.9638 4.31766 89.6602C1.95951 87.3565 0.611631 84.2114 0.569824 80.9151V12.475Z" fill="url(#left-to-right-1)"/>
    <path id="month" d="M57.3039 73.9918C53.3628 73.9874 49.4868 72.987 46.0359 71.0837C42.5849 69.1804 39.6709 66.4358 37.5646 63.1048C37.2611 62.6297 37.0558 62.0986 36.9606 61.5429C36.8654 60.9872 36.8823 60.4181 37.0104 59.869C37.1384 59.32 37.3749 58.802 37.7061 58.3458C38.0373 57.8895 38.4563 57.504 38.9387 57.2121C39.4129 56.9118 39.9428 56.7103 40.4967 56.6194C41.0507 56.5286 41.6172 56.5505 42.1625 56.6836C43.256 56.9528 44.2029 57.6345 44.805 58.5862C46.1703 60.8231 48.1151 62.6492 50.4334 63.8711C52.7451 65.0763 55.3336 65.6505 57.938 65.5359C59.0499 65.4797 60.1399 65.8588 60.9769 66.5929C61.5672 67.1319 61.9916 67.8281 62.2001 68.5998C62.4086 69.3716 62.3926 70.1868 62.154 70.9497C61.9154 71.7127 61.4641 72.3918 60.8531 72.9072C60.242 73.4226 59.4966 73.7531 58.7044 73.8597C58.2478 73.9797 57.7748 74.0243 57.3039 73.9918Z" fill="url(#left-to-right-2)"/>    
</svg>
