<svg width="300" height="108" viewBox="0 0 300 108" fill="none"
    xmlns="http://www.w3.org/2000/svg">
    <g>
        <path stroke-dasharray="450" stroke-dashoffset="450" fill="none" stroke="#2128BD" stroke-miterlimit="10" stroke-width="2" d="M138.835 46.9568C137.155 47.1169 135.461 46.8723 133.894 46.2433C132.32 45.6327 130.916 44.6541 129.798 43.3894C127.605 40.7469 126.971 35.8055 126.971 30.1771C126.971 24.5486 127.737 19.475 129.798 17.1497C130.903 15.8692 132.298 14.8724 133.868 14.2429C135.448 13.6342 137.149 13.3991 138.835 13.5559C141.856 13.4496 144.822 14.3823 147.238 16.1984C147.708 16.4621 148.1 16.8449 148.375 17.3082C148.659 17.7733 148.831 18.298 148.877 18.8408C148.771 19.5966 148.429 20.2995 147.899 20.8491C147.355 21.3913 146.651 21.7434 145.891 21.8533C145.325 21.8686 144.769 21.7019 144.305 21.3776C143.593 20.7336 142.757 20.2401 141.849 19.9268C140.941 19.6134 139.979 19.4868 139.02 19.5543C138.113 19.4687 137.199 19.6332 136.378 20.03C135.513 20.4646 134.796 21.1449 134.317 21.9854C133.501 24.6886 133.205 27.5221 133.445 30.3356C133.16 33.1811 133.485 36.0545 134.396 38.7651C134.847 39.5864 135.539 40.2503 136.378 40.6677C137.193 41.0812 138.114 41.2379 139.02 41.1169C141.02 41.1667 142.964 40.4587 144.464 39.135C144.692 38.8024 144.99 38.5229 145.336 38.3159C145.682 38.148 146.061 38.0578 146.446 38.0516C147.25 38.1413 148.003 38.4943 148.586 39.0558C149.172 39.6242 149.561 40.3649 149.696 41.1697C149.654 41.9192 149.333 42.626 148.798 43.1516C147.512 44.4922 145.943 45.5293 144.206 46.1875C142.469 46.8457 140.607 47.1085 138.756 46.9568H138.835Z">
            <animate fill="freeze" attributeName="stroke-dashoffset" begin="0s" values="450;0;" dur="11.3s" />
        </path>
        <path stroke-dasharray="450" stroke-dashoffset="450" fill="none" stroke="#2128BD" stroke-miterlimit="10" stroke-width="2" d="M157.121 17.0968C158.337 15.786 159.842 14.7782 161.517 14.1541C163.192 13.5301 164.99 13.3071 166.766 13.503C168.545 13.2832 170.349 13.495 172.028 14.1205C173.707 14.7461 175.211 15.767 176.411 17.0968C178.393 19.2901 179.239 23.8615 179.239 30.3092C179.239 36.7568 178.314 41.3811 176.411 43.5215C175.172 44.7908 173.658 45.7583 171.986 46.3493C170.314 46.9404 168.528 47.1392 166.766 46.9303C164.992 47.1296 163.195 46.9107 161.521 46.2913C159.846 45.6718 158.339 44.669 157.121 43.363C155.113 41.1697 154.294 36.5718 154.294 30.1506C154.294 23.7294 155.192 19.1844 157.121 17.0968ZM171.761 21.8004C171.17 21.0207 170.399 20.3952 169.515 19.9771C168.643 19.5478 167.685 19.3219 166.714 19.3165C165.716 19.3136 164.73 19.5396 163.833 19.9771C162.953 20.4021 162.184 21.0263 161.587 21.8004C160.693 24.5057 160.37 27.3668 160.636 30.2035C160.352 33.049 160.676 35.9224 161.587 38.633C162.196 39.3924 162.974 39.9987 163.86 40.4034C164.733 40.8244 165.691 41.0413 166.661 41.0376C167.63 41.0359 168.586 40.8193 169.462 40.4034C170.335 39.9912 171.103 39.3858 171.708 38.633C172.644 35.928 172.978 33.051 172.686 30.2035C172.946 27.3687 172.632 24.5106 171.761 21.8004Z">
            <animate fill="freeze" attributeName="stroke-dashoffset" begin="0s" values="450;0;" dur="11.3s" />
        </path>
        <path stroke-dasharray="450" stroke-dashoffset="450" fill="none" stroke="#2128BD" stroke-miterlimit="10" stroke-width="2" d="M197.657 13.5823C199.422 13.3864 201.208 13.6098 202.87 14.2343C204.532 14.8587 206.023 15.8667 207.223 17.1761C209.205 19.3165 210.024 23.8615 210.024 30.2035C210.024 36.5454 209.125 41.1169 207.223 43.2837C206.027 44.6023 204.539 45.6217 202.877 46.2597C201.216 46.8977 199.428 47.1365 197.657 46.9567H188.223C187.849 46.9806 187.474 46.9247 187.123 46.7926C186.773 46.6604 186.454 46.4552 186.189 46.1904C185.925 45.9264 185.734 45.5987 185.634 45.2391C185.555 44.8734 185.555 44.4951 185.634 44.1293V16.4098C185.555 16.044 185.555 15.6657 185.634 15.2999C185.75 14.9474 185.939 14.6232 186.189 14.3486C186.454 14.0839 186.773 13.8786 187.123 13.7465C187.474 13.6144 187.849 13.5584 188.223 13.5823H197.657ZM197.657 40.9848C198.634 41.1066 199.626 40.9413 200.511 40.5091C201.383 40.0656 202.115 39.3886 202.625 38.5537C203.55 35.8734 203.892 33.0266 203.629 30.2035C203.895 27.4624 203.571 24.6961 202.678 22.0911C202.197 21.2134 201.459 20.5036 200.564 20.0564C199.667 19.6017 198.654 19.4268 197.657 19.5543H192.134C191.817 19.5543 191.738 19.5543 191.738 20.0035V40.4563C191.738 40.7998 191.738 40.8791 192.134 40.8791L197.657 40.9848Z">
            <animate fill="freeze" attributeName="stroke-dashoffset" begin="0s" values="450;0;" dur="11.3s" />
        </path>
        <path stroke-dasharray="450" stroke-dashoffset="450" fill="none" stroke="#2128BD" stroke-miterlimit="10" stroke-width="2" d="M235.18 13.5823C235.563 13.5803 235.941 13.6614 236.29 13.8201C236.649 13.9595 236.967 14.1866 237.215 14.4808C237.474 14.7582 237.664 15.0933 237.77 15.4585C237.852 15.8327 237.852 16.2205 237.77 16.5947C237.852 16.969 237.852 17.3567 237.77 17.731C237.664 18.0962 237.474 18.4312 237.215 18.7087C236.961 19.003 236.645 19.2376 236.29 19.3958C235.941 19.5545 235.563 19.6356 235.18 19.6336H222.945C222.628 19.6336 222.523 19.6336 222.523 20.0299V26.2398C222.523 26.5833 222.523 26.689 222.945 26.689H233.277C235.259 26.689 235.92 28.1688 235.92 29.7014C235.998 30.0672 235.998 30.4455 235.92 30.8112C235.743 31.162 235.49 31.4689 235.18 31.7097C234.934 31.9951 234.627 32.221 234.282 32.3703C233.932 32.5245 233.554 32.6054 233.172 32.6081H222.945C222.628 32.6081 222.523 32.6081 222.523 33.0309V40.2977C222.523 40.6148 222.523 40.7205 222.945 40.7205H235.497C237.479 40.7205 238.14 42.2531 238.14 43.7858C238.233 44.1678 238.233 44.5665 238.14 44.9485C238.03 45.3198 237.841 45.6626 237.585 45.9526C237.325 46.241 237.011 46.4746 236.66 46.6397C236.304 46.8004 235.914 46.8729 235.523 46.851H218.955C218.581 46.8749 218.206 46.819 217.855 46.6869C217.505 46.5547 217.186 46.3495 216.92 46.0847C216.657 45.8207 216.466 45.493 216.366 45.1334C216.287 44.7677 216.287 44.3894 216.366 44.0236V16.4098C216.287 16.044 216.287 15.6657 216.366 15.2999C216.482 14.9474 216.671 14.6232 216.92 14.3486C217.186 14.0839 217.505 13.8786 217.855 13.7465C218.206 13.6144 218.581 13.5584 218.955 13.5823H235.18Z">
            <animate fill="freeze" attributeName="stroke-dashoffset" begin="0s" values="450;0;" dur="11.3s" />
        </path>
        <path stroke-dasharray="450" stroke-dashoffset="450" fill="none" stroke="#2128BD" stroke-miterlimit="10" stroke-width="2" d="M139.021 67.1188C135.929 67.1188 133.736 68.4665 133.736 70.5276C133.736 72.5887 135.321 73.1701 137.858 74.0421L142.297 75.7333C147.582 77.7151 150.648 80.4105 150.648 85.2726C150.648 91.271 145.97 94.8384 138.994 94.8384C136.965 94.9464 134.935 94.65 133.022 93.9664C131.066 93.2999 129.267 92.2386 127.737 90.8482C127.46 90.5956 127.235 90.2902 127.077 89.9498C126.833 89.4002 126.784 88.7838 126.937 88.2024C127.091 87.6211 127.439 87.1096 127.922 86.7524C128.501 86.1796 129.254 85.8168 130.063 85.7218C130.848 85.7861 131.586 86.1225 132.15 86.6731C134.056 88.2029 136.446 88.9997 138.889 88.9192C142.007 88.9192 144.174 87.5716 144.174 85.2726C144.174 83.4757 142.694 82.6301 140.183 81.5996L135.876 79.9348C130.591 77.9265 127.367 75.9447 127.367 70.5276C127.367 65.1105 131.86 61.1997 139.074 61.1997C142.316 61.0162 145.524 61.9488 148.164 63.8422C148.513 64.103 148.801 64.4366 149.009 64.8199C149.238 65.2045 149.365 65.641 149.379 66.0883C149.33 66.8877 149.003 67.6448 148.454 68.2287C147.9 68.8237 147.149 69.199 146.34 69.2856C145.716 69.2781 145.113 69.0644 144.623 68.6779C142.957 67.6005 141.003 67.0566 139.021 67.1188Z">
            <animate fill="freeze" attributeName="stroke-dashoffset" begin="0s" values="450;0;" dur="11.3s" />
        </path>
        <path stroke-dasharray="450" stroke-dashoffset="450" fill="none" stroke="#2128BD" stroke-miterlimit="10" stroke-width="2" d="M175.751 83.0529C174.324 85.6954 173.452 87.3073 171.206 87.3073C168.96 87.3073 168.114 85.7483 166.661 83.0529L163.12 76.1561C163.12 76.1561 163.12 75.9183 162.803 75.9183C162.486 75.9183 162.565 76.2882 162.565 76.2882V92.143C162.565 94.257 160.927 94.7855 159.473 94.7855C158.02 94.7855 156.355 94.257 156.355 92.143V64.7406C156.249 64.2708 156.249 63.7834 156.355 63.3137C156.507 62.858 156.76 62.4426 157.095 62.0981C157.434 61.75 157.85 61.4873 158.311 61.3318C158.764 61.1952 159.24 61.1503 159.711 61.1997C161.376 61.1997 162.644 61.8603 163.833 64.265L170.677 77.9265C170.836 78.2436 170.836 78.4815 171.047 78.4815C171.259 78.4815 171.259 78.2436 171.417 77.9265L178.314 64.265C179.503 61.8603 180.719 61.1997 182.304 61.1997C182.783 61.1239 183.274 61.1694 183.731 61.3318C184.202 61.4678 184.63 61.7226 184.973 62.0717C185.308 62.4162 185.561 62.8316 185.713 63.2872C185.876 63.7535 185.921 64.2526 185.845 64.7406V92.2223C185.845 94.3363 184.18 94.8648 182.727 94.8648C181.274 94.8648 179.688 94.3363 179.688 92.2223V76.3675C179.688 76.3675 179.688 75.9711 179.45 75.9711C179.377 75.9748 179.305 75.9991 179.245 76.0411C179.184 76.0831 179.136 76.1412 179.107 76.2089L175.751 83.0529Z">
            <animate fill="freeze" attributeName="stroke-dashoffset" begin="0s" values="450;0;" dur="11.3s" />
        </path>
        <path stroke-dasharray="450" stroke-dashoffset="450" fill="none" stroke="#2128BD" stroke-miterlimit="10" stroke-width="2" d="M193.667 63.8422C193.667 61.7282 195.358 61.1997 196.785 61.1997C198.212 61.1997 199.903 61.7282 199.903 63.8422V92.2223C199.903 94.3363 198.265 94.8648 196.785 94.8648C195.305 94.8648 193.667 94.3627 193.667 92.2223V63.8422Z">
            <animate fill="freeze" attributeName="stroke-dashoffset" begin="0s" values="450;0;" dur="11.3s" />
        </path>
        <path stroke-dasharray="450" stroke-dashoffset="450" fill="none" stroke="#2128BD" stroke-miterlimit="10" stroke-width="2" d="M214.226 67.8323C214.226 67.4888 214.226 67.4095 213.803 67.4095H207.831C207.44 67.4314 207.051 67.3589 206.694 67.1981C206.343 67.0331 206.029 66.7995 205.77 66.5111C205.517 66.2287 205.327 65.8953 205.215 65.5333C205.132 65.1591 205.132 64.7713 205.215 64.3971C205.122 64.024 205.122 63.6339 205.215 63.2608C205.32 62.8956 205.51 62.5606 205.77 62.2831C206.026 61.9984 206.342 61.773 206.694 61.6225C207.043 61.4637 207.421 61.3826 207.804 61.3847H226.804C227.184 61.3857 227.56 61.4574 227.914 61.596C228.269 61.7542 228.584 61.9888 228.838 62.2831C229.103 62.5567 229.294 62.8931 229.393 63.2608C229.486 63.6339 229.486 64.024 229.393 64.3971C229.447 64.7738 229.418 65.1576 229.309 65.5222C229.2 65.8868 229.014 66.2237 228.763 66.5097C228.512 66.7957 228.203 67.0242 227.855 67.1795C227.508 67.3348 227.131 67.4132 226.751 67.4095H220.858C220.594 67.4095 220.435 67.4095 220.435 67.8323V92.2223C220.435 94.3363 218.823 94.8648 217.344 94.8648C215.864 94.8648 214.226 94.3627 214.226 92.2223V67.8323Z">
            <animate fill="freeze" attributeName="stroke-dashoffset" begin="0s" values="450;0;" dur="11.3s" />
        </path>
        <path stroke-dasharray="450" stroke-dashoffset="450" fill="none" stroke="#2128BD" stroke-miterlimit="10" stroke-width="2" d="M253.677 63.8422C253.677 61.7282 255.342 61.1997 256.795 61.1997C258.249 61.1997 259.887 61.7282 259.887 63.8422V92.2223C259.887 94.3363 258.249 94.8648 256.795 94.8648C255.342 94.8648 253.677 94.3363 253.677 92.2223V81.3618C253.677 81.0447 253.545 80.939 253.228 80.939H241.469C241.152 80.939 241.046 80.939 241.046 81.3618V92.2223C241.046 94.3363 239.434 94.8648 237.955 94.8648C236.475 94.8648 234.836 94.3627 234.836 92.2223V63.8422C234.836 61.7282 236.528 61.1997 237.955 61.1997C239.381 61.1997 241.046 61.7282 241.046 63.8422V74.412C241.046 74.7556 241.046 74.8348 241.469 74.8348H253.175C253.492 74.8348 253.624 74.8348 253.624 74.412L253.677 63.8422Z">
            <animate fill="freeze" attributeName="stroke-dashoffset" begin="0s" values="450;0;" dur="11.3s" />
        </path>
        <path stroke-dasharray="450" stroke-dashoffset="450" fill="none" stroke="#2128BD" stroke-miterlimit="10" stroke-width="2" d="M277.777 67.1188C274.685 67.1188 272.492 68.4665 272.492 70.5276C272.492 72.5887 274.077 73.1701 276.588 74.0421L281.053 75.7333C286.338 77.7151 289.43 80.4105 289.43 85.2726C289.43 91.271 284.727 94.8384 277.75 94.8384C275.722 94.9654 273.689 94.6771 271.776 93.991C269.863 93.3049 268.111 92.2355 266.626 90.8482C266.34 90.6027 266.114 90.2955 265.965 89.9498C265.812 89.6077 265.722 89.2405 265.701 88.8664C265.832 88.0659 266.211 87.3266 266.784 86.7524C267.369 86.1893 268.119 85.8281 268.924 85.7218C269.708 85.7924 270.445 86.128 271.012 86.6731C272.918 88.2029 275.308 88.9997 277.75 88.9192C280.868 88.9192 283.035 87.5716 283.035 85.2726C283.035 83.4757 281.529 82.6301 279.045 81.5996L274.553 79.9348C269.268 77.9265 266.044 75.9447 266.044 70.5276C266.044 65.1105 270.536 61.1997 277.75 61.1997C280.993 61.0162 284.201 61.9488 286.84 63.8422C287.198 64.102 287.495 64.4354 287.712 64.8199C287.905 65.2069 288.013 65.6301 288.03 66.0618C287.966 66.8708 287.631 67.6345 287.078 68.2287C286.521 68.8159 285.77 69.1819 284.964 69.2592C284.333 69.2479 283.722 69.0349 283.22 68.6515C281.602 67.6036 279.704 67.0694 277.777 67.1188Z">
            <animate fill="freeze" attributeName="stroke-dashoffset" begin="0s" values="450;0;" dur="11.3s" />
        </path>
    </g>
    <path stroke-dasharray="450" stroke-dashoffset="450" fill="none" stroke="#2128BD" stroke-miterlimit="10" stroke-width="2" d="M72.5889 38.7915C72.6477 39.6277 72.5299 40.4668 72.2431 41.2545C71.9563 42.0421 71.5069 42.7605 70.9241 43.363C70.3448 43.9661 69.6538 44.4507 68.8894 44.7899C68.117 45.1207 67.2854 45.2912 66.4451 45.2912C65.6048 45.2912 64.7733 45.1207 64.0008 44.7899C63.2365 44.4507 62.5454 43.9661 61.9661 43.363C61.3834 42.7605 60.9339 42.0421 60.6471 41.2545C60.3603 40.4668 60.2425 39.6277 60.3014 38.7915C60.2427 37.9487 60.3597 37.1029 60.6449 36.3076C60.9411 35.5225 61.3902 34.8039 61.9661 34.1936C62.5417 33.5834 63.2359 33.0972 64.0061 32.7649C64.7763 32.4326 65.6063 32.2612 66.4451 32.2612C67.284 32.2612 68.1139 32.4326 68.8842 32.7649C69.6544 33.0972 70.3486 33.5834 70.9241 34.1936C71.5 34.8039 71.9491 35.5225 72.2453 36.3076C72.5305 37.1029 72.6475 37.9487 72.5889 38.7915Z">
        <animate fill="freeze" attributeName="stroke-dashoffset" begin="0s" values="450;0;" dur="11.3s" />
    </path>
    <path stroke-dasharray="450" stroke-dashoffset="450" fill="none" stroke="#2128BD" stroke-miterlimit="10" stroke-width="2" d="M87.4395 44.1029V19.0787C87.3794 17.753 86.8229 16.4984 85.8804 15.5642C85.4073 15.1073 84.8486 14.7485 84.2364 14.5081C83.6242 14.2678 82.9706 14.1507 82.3131 14.1637H76.8696C76.3839 14.1852 75.899 14.1072 75.4446 13.9345C74.9902 13.7618 74.5759 13.4981 74.2271 13.1595C73.8684 12.8191 73.5827 12.4093 73.3874 11.9551C73.1921 11.5008 73.0912 11.0115 73.0908 10.517C73.0957 10.0443 73.1945 9.5772 73.3815 9.14296C73.5748 8.72029 73.8537 8.34236 74.2007 8.03312C74.5466 7.70639 74.9623 7.46244 75.4162 7.31966C75.8567 7.16452 76.3244 7.10156 76.7903 7.13468H82.7094C84.3426 7.09988 85.9663 7.39035 87.4861 7.98919C89.0058 8.58802 90.3913 9.48326 91.5617 10.6227C92.6961 11.7663 93.594 13.1222 94.2042 14.6129C94.8674 16.1015 95.2096 17.7132 95.2083 19.3429V44.9485C95.1595 45.5816 95.2312 46.2182 95.4197 46.8246C95.6257 47.4281 95.949 47.9849 96.371 48.463C96.7989 48.9358 97.321 49.3138 97.9036 49.5728C98.4749 49.8374 99.0974 49.9727 99.727 49.9692C100.212 49.9508 100.696 50.0302 101.15 50.2027C101.604 50.3752 102.019 50.6373 102.369 50.9733C103.032 51.6345 103.419 52.522 103.453 53.4572C103.446 54.4448 103.058 55.3914 102.369 56.0997C101.664 56.7926 100.716 57.1816 99.727 57.1831C99.0996 57.173 98.4775 57.2992 97.9036 57.5531C97.3361 57.8037 96.8256 58.1673 96.4031 58.6216C95.9806 59.0759 95.655 59.6114 95.4461 60.1955C95.2636 60.7944 95.1832 61.4197 95.2083 62.0453V87.8622C95.207 89.5002 94.8651 91.12 94.2042 92.6187C92.8883 95.6434 90.4414 98.0334 87.3866 99.2777C85.8657 99.882 84.24 100.178 82.6037 100.15H76.8696C76.3951 100.181 75.919 100.118 75.469 99.9648C75.0314 99.7917 74.6286 99.541 74.2799 99.2249C73.9376 98.891 73.6599 98.4969 73.4608 98.0622C73.2738 97.6279 73.175 97.1609 73.1701 96.6881C73.1704 96.1936 73.2713 95.7044 73.4667 95.2501C73.662 94.7958 73.9477 94.386 74.3064 94.0456C74.6565 93.7105 75.0716 93.4508 75.5262 93.2826C75.9807 93.1144 76.4649 93.0414 76.9488 93.0679H82.3923C83.7087 93.0897 84.9815 92.5963 85.9392 91.6929C86.897 90.7895 87.4638 89.5476 87.5187 88.2322V63.1815C87.4503 61.3613 87.8124 59.5505 88.5757 57.8966C89.3141 56.2379 90.4266 54.7727 91.826 53.6158C90.418 52.4651 89.2888 51.0106 88.5229 49.3614C87.7592 47.7162 87.3883 45.916 87.4395 44.1029Z">
        <animate fill="freeze" attributeName="stroke-dashoffset" begin="0s" values="450;0;" dur="6s" />
    </path>
    <path stroke-dasharray="450" stroke-dashoffset="450" fill="none" stroke="#2128BD" stroke-miterlimit="10" stroke-width="2" d="M10.5698 19.475C10.5906 17.8449 10.9411 16.2359 11.6004 14.745C12.2106 13.2543 13.1085 11.8984 14.2429 10.7549C15.4227 9.60571 16.8211 8.70491 18.3552 8.10578C19.8893 7.50665 21.5281 7.22136 23.1744 7.2668H48.78C49.2545 7.23519 49.7305 7.29806 50.1805 7.45177C50.6189 7.61134 51.0225 7.85355 51.3696 8.16524C51.715 8.48035 51.9859 8.86852 52.1623 9.3015C52.3606 9.7238 52.4686 10.1828 52.4794 10.6492C52.4732 11.1427 52.3695 11.6302 52.1746 12.0836C51.9796 12.537 51.6971 12.9476 51.3432 13.2916C50.9896 13.6217 50.5739 13.8782 50.1202 14.046C49.6665 14.2139 49.184 14.2898 48.7007 14.2694H23.5708C22.912 14.2626 22.2578 14.3791 21.6418 14.6129C21.0218 14.8504 20.4557 15.2098 19.977 15.6699C19.5136 16.1364 19.1377 16.6824 18.8672 17.2818C18.6208 17.8487 18.4949 18.4605 18.4972 19.0787V88.4171C18.5455 89.7302 19.1065 90.9721 20.06 91.8762C21.0135 92.7802 22.2834 93.2745 23.5972 93.2529H48.8064C49.2906 93.2231 49.7758 93.2947 50.2308 93.463C50.6858 93.6314 51.1006 93.8928 51.4489 94.2306C51.9853 94.7035 52.3566 95.3354 52.5087 96.0341C52.6608 96.7329 52.5858 97.4619 52.2945 98.115C52.1115 98.5444 51.8415 98.9313 51.5017 99.2513C51.1573 99.5861 50.7418 99.839 50.2862 99.9912C49.8509 100.168 49.3804 100.24 48.9121 100.203H23.148C19.8516 100.238 16.6758 98.9638 14.3177 96.6602C11.9595 94.3565 10.6116 91.2114 10.5698 87.9151V19.475Z">
        <animate fill="freeze" attributeName="stroke-dashoffset" begin="0s" values="450;0;" dur="6s" />
    </path>
    <path stroke-dasharray="450" stroke-dashoffset="450" fill="none" stroke="#2128BD" stroke-miterlimit="10" stroke-width="2" d="M67.3039 80.9918C63.3628 80.9874 59.4868 79.987 56.0359 78.0837C52.5849 76.1804 49.6709 73.4358 47.5646 70.1048C47.2611 69.6297 47.0558 69.0986 46.9606 68.5429C46.8654 67.9872 46.8823 67.4181 47.0104 66.869C47.1384 66.32 47.3749 65.802 47.7061 65.3458C48.0373 64.8895 48.4563 64.504 48.9387 64.2121C49.4129 63.9118 49.9428 63.7103 50.4967 63.6194C51.0507 63.5286 51.6172 63.5505 52.1625 63.6836C53.256 63.9528 54.2029 64.6345 54.805 65.5862C56.1703 67.8231 58.1151 69.6492 60.4334 70.8711C62.7451 72.0763 65.3336 72.6505 67.938 72.5359C69.0499 72.4797 70.1399 72.8588 70.9769 73.5929C71.5672 74.1319 71.9916 74.8281 72.2001 75.5998C72.4086 76.3716 72.3926 77.1868 72.154 77.9497C71.9154 78.7127 71.4641 79.3918 70.8531 79.9072C70.242 80.4226 69.4966 80.7531 68.7044 80.8597C68.2478 80.9797 67.7748 81.0243 67.3039 80.9918Z">
        <animate fill="freeze" attributeName="stroke-dashoffset" begin="0s" values="450;0;" dur="6s" />
    </path>
</svg>
